# Object Export From Tinkercad Server 2015

mtllib obj.mtl

o obj_0
v -18 		-74 		0
v -18 		-74 		20
v -19 		-74 		20
v -19 		-74 		0
v 50 		91 		0
v 50 		91 		20
v -34.5 		-46.875 		3
v -33.766 		-46.923 		3
v -33.044 		-47.067 		3
v 50 		-60 		20
v 50 		-60 		0
v -50 		-30 		20
v -34.5 		-45 		3
v -35.479 		-45.064 		3
v -36.441 		-45.256 		3
v -31 		40 		20
v -33.521 		-45.064 		3
v -9 		9 		0
v -31 		-29 		20
v -9 		-19 		0
v -10 		-20 		0
v -38.963 		-49.076 		3
v 10 		-51 		0
v -30 		-30 		20
v -30 		41 		20
v -50 		90 		20
v -19 		90 		20
v -38.477 		-48.523 		3
v 3 		-51 		0
v 3 		-50 		0
v 10 		-50 		0
v -37.924 		-48.037 		3
v 16 		-51 		0
v 16 		-50 		0
v -50 		-30 		0
v -37.313 		-47.629 		3
v 23 		-51 		0
v 23 		-50 		0
v -31 		40 		0
v 37 		-51 		0
v 30 		-51 		0
v 30 		-50 		0
v 37 		-50 		0
v -31 		-29 		0
v -30 		41 		0
v -30 		-30 		0
v -32.347 		-47.303 		0
v -37.37 		-45.571 		3
v -38.25 		-46.005 		3
v -39.066 		-46.55 		3
v -39.803 		-47.197 		3
v -40.45 		-47.934 		3
v -31.688 		-47.629 		0
v 37.628 		-25.923 		0
v 39.544 		-25.94 		0
v 39.848 		-26.109 		0
v 40.104 		-26.35 		0
v -31.076 		-48.037 		0
v 40.209 		-26.681 		0
v 32.354 		-28 		3
v 40.254 		-27.03 		0
v 40.169 		-27.296 		0
v 40.034 		-27.54 		0
v -30.523 		-48.523 		0
v 39.751 		-27.746 		0
v 39.434 		-27.89 		0
v 37.53 		-27.947 		0
v -40.995 		-48.75 		3
v -30.037 		-49.076 		0
v 33.599 		-27.934 		0
v -29.629 		-49.688 		3
v 35.614 		-27.95 		0
v 35.229 		-27.914 		0
v -29.303 		-50.347 		3
v 34.844 		-27.88 		0
v -32.559 		-45.256 		0
v -29.067 		-51.044 		3
v -31.63 		-45.571 		0
v -30.75 		-46.005 		0
v -29.934 		-46.55 		0
v -29.197 		-47.197 		0
v -28.55 		-47.934 		0
v -28.005 		-48.75 		0
v 33.63 		-25.942 		0
v -28.923 		-51.766 		3
v -28.875 		-52.5 		3
v 34.964 		-25.88 		0
v 35.329 		-25.913 		0
v 35.694 		-25.95 		0
v -36.653 		-47.303 		0
v -28.923 		-53.234 		3
v -35.956 		-47.067 		0
v -35.234 		-46.923 		0
v -27 		-52.5 		3
v -27.064 		-51.521 		3
v 28.28 		-25.973 		0
v -27.256 		-50.559 		3
v -27.571 		-49.63 		3
v -34.5 		-46.875 		0
v 32.294 		-26 		0
v -33.766 		-46.923 		0
v 32.309 		-28 		0
v 32.263 		-27.999 		0
v -29.067 		-53.956 		3
v 32.354 		-28 		0
v -33.044 		-47.067 		0
v -29.303 		-54.653 		3
v -29.629 		-55.313 		3
v -36.441 		-45.256 		0
v 27.743 		-27.959 		0
v -35.479 		-45.064 		0
v -34.5 		-45 		0
v -33.521 		-45.064 		0
v -30.037 		-55.924 		3
v -30.523 		-56.477 		3
v -38.963 		-49.076 		0
v 18.7586 		-20 		0
v 18.884 		-20.16 		0
v 18.948 		-20.375 		0
v -27.064 		-53.479 		3
v -38.477 		-48.523 		0
v -31.076 		-56.963 		3
v 17.024 		-20.32 		0
v 17.148 		-20.071 		0
v 17.2045 		-20 		0
v -37.924 		-48.037 		0
v 18.984 		-20.6 		0
v -27.571 		-49.63 		0
v -37.313 		-47.629 		0
v 19.094 		-23.61 		0
v -28.005 		-56.25 		3
v -27.571 		-55.37 		3
v -27.256 		-54.441 		3
v -28.55 		-57.066 		3
v 19.148 		-23.992 		0
v -31.688 		-57.371 		3
v 19.224 		-24.37 		0
v -32.347 		-57.697 		3
v -40.45 		-47.934 		0
v -39.803 		-47.197 		0
v -39.066 		-46.55 		0
v -38.25 		-46.005 		0
v -37.37 		-45.571 		0
v -31.63 		-59.429 		3
v 17.132 		-23.929 		0
v -30.75 		-58.995 		3
v 17.034 		-23.02 		0
v -29.934 		-58.45 		3
v 17 		-21.665 		0
v -29.197 		-57.803 		3
v -40.995 		-48.75 		0
v -32.559 		-59.744 		3
v -29.629 		-49.688 		0
v 20.725 		-25.527 		0
v -37.924 		-56.963 		3
v -29.303 		-50.347 		0
v 21.734 		-25.75 		0
v -38.477 		-56.477 		3
v -29.067 		-51.044 		0
v 22.957 		-25.855 		0
v -38.963 		-55.924 		3
v -28.923 		-51.766 		0
v -39.371 		-55.313 		3
v 24.184 		-25.93 		0
v -28.875 		-52.5 		0
v -39.697 		-54.653 		3
v -28.923 		-53.234 		0
v -39.933 		-53.956 		3
v 24.225 		-25.931 		0
v -40.077 		-53.234 		3
v -27.256 		-50.559 		0
v -27.064 		-51.521 		0
v -27 		-52.5 		0
v -40.125 		-52.5 		3
v 23.224 		-27.9 		0
v 22.336 		-27.838 		0
v 21.454 		-27.73 		0
v -29.067 		-53.956 		0
v 24.265 		-25.931 		0
v -40.45 		-57.066 		3
v -29.303 		-54.653 		0
v -40.077 		-51.766 		3
v 19.328 		-24.665 		0
v -29.629 		-55.313 		0
v -39.933 		-51.044 		3
v 19.454 		-24.95 		0
v -30.037 		-55.924 		0
v -39.697 		-50.347 		3
v 19.581 		-25.116 		0
v -30.523 		-56.477 		0
v -39.371 		-49.688 		3
v 19.734 		-25.25 		0
v -27.064 		-53.479 		0
v -31.076 		-56.963 		0
v -27.256 		-54.441 		0
v -27.571 		-55.37 		0
v -28.005 		-56.25 		0
v -28.55 		-57.066 		0
v 20.04 		-27.409 		0
v -31.688 		-57.371 		0
v 18.674 		-26.99 		0
v 18.132 		-26.475 		0
v 17.664 		-25.87 		0
v 17.443 		-25.362 		0
v 17.274 		-24.83 		0
v -42 		-52.5 		3
v -41.936 		-53.479 		3
v -41.744 		-54.441 		3
v -32.347 		-57.697 		0
v -41.429 		-55.37 		3
v -40.995 		-56.25 		3
v -41.429 		-49.63 		3
v -41.744 		-50.559 		3
v -41.936 		-51.521 		3
v -29.197 		-57.803 		0
v -29.934 		-58.45 		0
v -34.5 		-58.125 		3
v -30.75 		-58.995 		0
v -35.234 		-58.077 		3
v -31.63 		-59.429 		0
v -32.559 		-59.744 		0
v 49 		-19 		0
v 49 		-20 		0
v -35.956 		-57.933 		3
v -37.924 		-56.963 		0
v -36.653 		-57.697 		3
v 49 		-59 		0
v -38.477 		-56.477 		0
v 32.263 		-27.999 		3
v 32.309 		-28 		3
v -38.963 		-55.924 		0
v -33.044 		-57.933 		3
v -18 		-60 		0
v -19 		-59 		0
v -39.371 		-55.313 		0
v -33.766 		-58.077 		3
v -39.697 		-54.653 		0
v -10 		90 		20
v -19 		90 		0
v -10 		90 		0
v -35.479 		-59.936 		3
v -34.5 		-60 		3
v -39.933 		-53.956 		0
v -33.521 		-59.936 		3
v -9 		90 		20
v -9 		90 		0
v -40.077 		-53.234 		0
v 49 		90 		20
v -36.441 		-59.744 		3
v 49 		90 		0
v -37.313 		-57.371 		3
v -40.125 		-52.5 		0
v -39.066 		-58.45 		3
v -38.25 		-58.995 		3
v -37.37 		-59.429 		3
v -40.077 		-51.766 		0
v -40.45 		-57.066 		0
v -39.803 		-57.803 		3
v -39.933 		-51.044 		0
v -32.347 		-47.303 		3
v 29.2318 		81 		20
v -39.697 		-50.347 		0
v 28.841 		80.742 		20
v -31.688 		-47.629 		3
v -39.371 		-49.688 		0
v 28.341 		80.481 		20
v -31.076 		-48.037 		3
v -30.523 		-48.523 		3
v 27.761 		80.234 		20
v -30.037 		-49.076 		3
v 27.105 		80.005 		20
v -40.995 		-56.25 		0
v -41.429 		-55.37 		0
v -41.744 		-54.441 		0
v -41.936 		-53.479 		0
v -42 		-52.5 		0
v 26.382 		79.794 		20
v -41.936 		-51.521 		0
v -41.744 		-50.559 		0
v -41.429 		-49.63 		0
v -35.234 		-58.077 		0
v -34.5 		-58.125 		0
v -28.005 		-48.75 		3
v 25.597 		79.605 		20
v -35.956 		-57.933 		0
v -28.55 		-47.934 		3
v -36.653 		-57.697 		0
v 24.758 		79.439 		20
v -29.197 		-47.197 		3
v -29.934 		-46.55 		3
v -33.044 		-57.933 		0
v -30.75 		-46.005 		3
v -33.766 		-58.077 		0
v -31.63 		-45.571 		3
v 23.873 		79.298 		20
v -32.559 		-45.256 		3
v -34.5 		-60 		0
v -35.479 		-59.936 		0
v -36.441 		-59.744 		0
v 22.951 		79.182 		20
v -33.521 		-59.936 		0
v -36.653 		-47.303 		3
v 22 		79.094 		20
v -37.313 		-57.371 		0
v -35.956 		-47.067 		3
v 21.031 		79.034 		20
v -35.234 		-46.923 		3
v -37.37 		-59.429 		0
v -38.25 		-58.995 		0
v -39.066 		-58.45 		0
v -39.803 		-57.803 		0
v 20.051 		79.003 		20
v -50 		90 		0
v 19.071 		79 		20
v 18.099 		79.026 		20
v 17.146 		79.081 		20
v 16.221 		79.164 		20
v 15.331 		79.275 		20
v 14.487 		79.411 		20
v 13.696 		79.573 		20
v 12.966 		79.758 		20
v 12.303 		79.964 		20
v 11.714 		80.191 		20
v 11.205 		80.434 		20
v 10.781 		80.693 		20
v 10.446 		80.964 		20
v 10.4149 		81 		20
v 18.7586 		-20 		3
v 17.2045 		-20 		3
v 49 		-19 		20
v -9 		-19 		20
v 49 		-59 		20
v 49 		-20 		20
v -19 		-59 		20
v -57.181 		-31.586 		0
v -56.761 		-31.852 		0
v -18 		-60 		20
v -56.5728 		-32.01 		0
v -65.02 		-30.014 		0
v -64.049 		-30.058 		0
v -50 		-49 		20
v -50 		-49 		0
v -63.097 		-30.129 		0
v -50 		-73 		20
v -50 		-73 		0
v -50 		-59 		0
v -50 		-59 		20
v -82 		91 		20
v -82 		91 		0
v -62.173 		-30.228 		0
v -82 		-49 		0
v -82 		-49 		20
v -61.286 		-30.354 		0
v -82 		-59 		20
v -82 		-59 		0
v -82 		-60 		0
v -82 		-60 		20
v -81 		90 		20
v -60.444 		-30.506 		0
v -81 		41 		20
v -81 		40 		20
v -59.656 		-30.681 		0
v -56.5728 		-32.01 		20
v -56.761 		-31.852 		20
v -57.181 		-31.586 		20
v -58.929 		-30.879 		0
v -58.27 		-31.097 		0
v -57.685 		-31.333 		0
v -57.685 		-31.333 		20
v -58.27 		-31.097 		20
v -58.929 		-30.879 		20
v -59.656 		-30.681 		20
v -60.444 		-30.506 		20
v -61.286 		-30.354 		20
v -62.173 		-30.228 		20
v -63.097 		-30.129 		20
v -64.049 		-30.058 		20
v -65.02 		-30.014 		20
v 32.294 		-26 		3
v 27.743 		-27.959 		3
v 22 		79.094 		0
v 22.951 		79.182 		0
v 21.031 		79.034 		0
v 20.051 		79.003 		0
v 19.071 		79 		0
v 18.099 		79.026 		0
v 17.146 		79.081 		0
v 16.221 		79.164 		0
v 15.331 		79.275 		0
v 14.487 		79.411 		0
v 13.696 		79.573 		0
v 12.966 		79.758 		0
v 12.303 		79.964 		0
v 11.714 		80.191 		0
v -73.071 		-30.879 		0
v 11.205 		80.434 		0
v -72.344 		-30.681 		0
v 10.781 		80.693 		0
v -71.556 		-30.506 		0
v 10.446 		80.964 		0
v -70.714 		-30.354 		0
v 10.4149 		81 		0
v -69.827 		-30.228 		0
v -9 		9 		20
v -9 		81 		0
v -9 		81 		20
v -68.903 		-30.129 		0
v -67.951 		-30.058 		0
v 49 		81 		0
v 49 		81 		20
v 29.2318 		81 		0
v 28.841 		80.742 		0
v -66.98 		-30.014 		0
v 28.341 		80.481 		0
v -66 		-30 		0
v 27.761 		80.234 		0
v -75.239 		-31.852 		0
v -75.4272 		-32.01 		0
v 27.105 		80.005 		0
v -74.819 		-31.586 		0
v 26.382 		79.794 		0
v -74.315 		-31.333 		0
v 25.597 		79.605 		0
v -73.73 		-31.097 		0
v 24.758 		79.439 		0
v -81 		-32.01 		0
v -81 		-32.01 		20
v -51 		-32.01 		20
v -51 		-32.01 		0
v 23.873 		79.298 		0
v -66 		-30 		20
v -66.98 		-30.014 		20
v -67.951 		-30.058 		20
v -68.903 		-30.129 		20
v -69.827 		-30.228 		20
v -70.714 		-30.354 		20
v -71.556 		-30.506 		20
v -72.344 		-30.681 		20
v -73.071 		-30.879 		20
v -75.4272 		-32.01 		20
v -73.73 		-31.097 		20
v -74.315 		-31.333 		20
v -74.819 		-31.586 		20
v -75.239 		-31.852 		20
v -81 		-33 		20
v -51 		-33 		20
v -51 		-29 		20
v -51 		-48 		20
v -81 		-48 		20
v -51 		-60 		20
v -51 		-73 		20
v -81 		90 		0
v -81 		40 		0
v -81 		41 		0
v 29.997 		82.177 		20
v 29.9712 		82 		20
v 19.8553 		82 		20
v -51 		-33 		0
v -51 		-48 		0
v -51 		-29 		0
v -81 		-48 		0
v -81 		-33 		0
v 29.9712 		82 		0
v 29.997 		82.177 		0
v -51 		-73 		0
v 19.8553 		82 		0
v -51 		-60 		0
v -9 		82 		20
v -9 		82 		0
v 49 		82 		20
v 49 		82 		0
v -10 		-20 		20
v 10 		-50 		2
v 10 		-51 		2
v 3 		-51 		2
v 3 		-50 		2
v 16 		-51 		2
v 16 		-50 		2
v 37 		-50 		2
v 37 		-51 		2
v 23 		-50 		2
v 23 		-51 		2
v 30 		-51 		2
v 30 		-50 		2
v 40.254 		-27.03 		3
v 40.209 		-26.681 		3
v 40.104 		-26.35 		3
v 39.848 		-26.109 		3
v 39.544 		-25.94 		3
v 37.628 		-25.923 		3
v 37.53 		-27.947 		3
v 39.434 		-27.89 		3
v 39.751 		-27.746 		3
v 40.034 		-27.54 		3
v 40.169 		-27.296 		3
v 33.599 		-27.934 		3
v 35.614 		-27.95 		3
v 35.229 		-27.914 		3
v 34.844 		-27.88 		3
v 33.63 		-25.942 		3
v 35.694 		-25.95 		3
v 35.329 		-25.913 		3
v 34.964 		-25.88 		3
v 28.28 		-25.973 		3
v 17.024 		-20.32 		3
v 18.948 		-20.375 		3
v 18.884 		-20.16 		3
v 17.148 		-20.071 		3
v 19.094 		-23.61 		3
v 18.984 		-20.6 		3
v 19.148 		-23.992 		3
v 19.224 		-24.37 		3
v 17 		-21.665 		3
v 17.034 		-23.02 		3
v 17.132 		-23.929 		3
v 20.725 		-25.527 		3
v 21.734 		-25.75 		3
v 22.957 		-25.855 		3
v 24.184 		-25.93 		3
v 24.225 		-25.931 		3
v 22.336 		-27.838 		3
v 23.224 		-27.9 		3
v 24.265 		-25.931 		3
v 21.454 		-27.73 		3
v 19.328 		-24.665 		3
v 19.454 		-24.95 		3
v 19.581 		-25.116 		3
v 19.734 		-25.25 		3
v 18.674 		-26.99 		3
v 20.04 		-27.409 		3
v 17.274 		-24.83 		3
v 17.443 		-25.362 		3
v 17.664 		-25.87 		3
v 18.132 		-26.475 		3
# 534 vertices

g group_0_16500122

usemtl color_16500122
s 0

f 1 	2 	3
f 1 	3 	4
f 8 	13 	7
f 10 	5 	6
f 5 	10 	11
f 9 	296 	8
f 364 	336 	335
f 338 	336 	364
f 16 	25 	360
f 305 	307 	15
f 260 	296 	9
f 24 	19 	12
f 18 	20 	21
f 19 	24 	16
f 25 	16 	24
f 348 	26 	27
f 23 	29 	30
f 23 	30 	31
f 33 	34 	38
f 36 	302 	49
f 32 	51 	28
f 37 	33 	38
f 45 	39 	454
f 453 	454 	39
f 40 	41 	42
f 40 	42 	43
f 44 	46 	35
f 45 	46 	44
f 45 	44 	39
f 76 	78 	47
f 51 	32 	50
f 49 	50 	32
f 52 	22 	51
f 32 	36 	49
f 48 	302 	15
f 55 	56 	54
f 54 	56 	57
f 54 	57 	59
f 54 	59 	61
f 54 	61 	62
f 54 	62 	63
f 54 	63 	65
f 54 	65 	66
f 54 	66 	67
f 182 	185 	213
f 53 	47 	79
f 78 	79 	47
f 87 	88 	75
f 84 	87 	75
f 85 	97 	77
f 77 	97 	74
f 64 	58 	81
f 69 	64 	81
f 81 	82 	69
f 82 	83 	69
f 153 	69 	83
f 79 	80 	58
f 58 	53 	79
f 86 	94 	85
f 72 	73 	89
f 88 	89 	73
f 67 	72 	89
f 54 	67 	89
f 73 	75 	88
f 84 	75 	70
f 92 	90 	109
f 93 	92 	109
f 100 	103 	96
f 103 	110 	96
f 97 	85 	95
f 98 	74 	97
f 94 	95 	85
f 94 	86 	91
f 94 	91 	120
f 109 	111 	93
f 107 	133 	104
f 108 	131 	107
f 84 	70 	100
f 105 	100 	70
f 105 	102 	100
f 103 	100 	102
f 175 	179 	110
f 114 	131 	108
f 104 	133 	91
f 112 	113 	101
f 76 	101 	113
f 99 	93 	112
f 111 	112 	93
f 106 	76 	47
f 106 	101 	76
f 99 	112 	101
f 115 	150 	114
f 120 	91 	133
f 122 	150 	115
f 119 	125 	118
f 123 	124 	119
f 124 	125 	119
f 117 	118 	125
f 265 	151 	116
f 121 	116 	140
f 139 	140 	116
f 145 	147 	130
f 133 	107 	132
f 132 	107 	131
f 131 	114 	134
f 135 	145 	130
f 137 	205 	135
f 144 	146 	138
f 141 	142 	126
f 90 	129 	142
f 142 	143 	90
f 109 	90 	143
f 126 	121 	140
f 129 	126 	142
f 140 	141 	126
f 149 	123 	127
f 119 	127 	123
f 127 	130 	149
f 147 	149 	130
f 150 	122 	148
f 146 	148 	122
f 134 	114 	150
f 122 	136 	146
f 136 	138 	146
f 144 	138 	152
f 80 	81 	58
f 156 	153 	83
f 175 	176 	160
f 161 	258 	158
f 83 	128 	156
f 163 	211 	161
f 164 	175 	160
f 156 	171 	159
f 166 	211 	163
f 159 	171 	162
f 169 	175 	164
f 157 	160 	176
f 206 	207 	170
f 171 	156 	128
f 172 	162 	171
f 173 	162 	172
f 167 	165 	173
f 165 	162 	173
f 174 	206 	170
f 154 	157 	177
f 175 	169 	179
f 96 	110 	179
f 173 	193 	167
f 193 	195 	167
f 185 	188 	213
f 186 	203 	183
f 183 	204 	137
f 178 	167 	195
f 188 	191 	68
f 182 	206 	174
f 195 	196 	181
f 181 	178 	195
f 192 	154 	199
f 189 	202 	186
f 184 	181 	197
f 196 	197 	181
f 191 	22 	68
f 52 	68 	22
f 28 	51 	22
f 187 	184 	197
f 198 	215 	187
f 197 	198 	187
f 190 	187 	215
f 194 	190 	215
f 202 	192 	201
f 203 	186 	202
f 204 	183 	203
f 205 	137 	204
f 199 	201 	192
f 145 	135 	205
f 192 	202 	189
f 177 	199 	154
f 176 	177 	157
f 208 	210 	166
f 211 	166 	210
f 180 	161 	211
f 168 	170 	208
f 207 	208 	170
f 212 	213 	188
f 68 	212 	188
f 213 	214 	182
f 206 	182 	214
f 218 	194 	216
f 220 	209 	218
f 221 	209 	220
f 215 	216 	194
f 200 	218 	209
f 194 	218 	200
f 223 	117 	222
f 20 	222 	117
f 20 	117 	125
f 20 	125 	21
f 60 	379 	230
f 223 	222 	11
f 5 	11 	222
f 234 	227 	233
f 11 	233 	227
f 227 	223 	11
f 236 	152 	232
f 228 	311 	231
f 257 	272 	231
f 238 	27 	239
f 238 	239 	240
f 235 	231 	272
f 152 	236 	244
f 242 	244 	236
f 138 	232 	152
f 236 	217 	242
f 217 	219 	242
f 241 	242 	219
f 224 	249 	219
f 255 	249 	226
f 226 	249 	224
f 241 	219 	249
f 246 	250 	245
f 248 	245 	250
f 237 	235 	272
f 272 	273 	237
f 273 	274 	237
f 21 	238 	240
f 255 	226 	254
f 226 	251 	254
f 251 	155 	254
f 253 	254 	155
f 158 	258 	155
f 168 	208 	166
f 258 	161 	180
f 253 	155 	258
f 260 	9 	47
f 256 	252 	276
f 264 	260 	47
f 264 	47 	53
f 267 	264 	53
f 267 	53 	58
f 278 	279 	256
f 265 	262 	151
f 139 	116 	151
f 268 	267 	58
f 268 	58 	64
f 268 	64 	69
f 268 	69 	270
f 76 	113 	17
f 270 	69 	153
f 270 	153 	71
f 276 	278 	256
f 243 	237 	274
f 247 	243 	274
f 274 	275 	247
f 275 	276 	247
f 252 	247 	276
f 262 	259 	279
f 259 	256 	279
f 280 	262 	279
f 151 	262 	280
f 83 	283 	98
f 423 	421 	284
f 83 	82 	286
f 83 	286 	283
f 82 	81 	289
f 82 	289 	286
f 285 	281 	299
f 287 	285 	299
f 81 	80 	290
f 81 	290 	289
f 80 	79 	292
f 80 	292 	290
f 301 	293 	221
f 221 	291 	209
f 79 	78 	294
f 79 	294 	292
f 78 	76 	296
f 78 	296 	294
f 76 	17 	296
f 298 	299 	281
f 297 	298 	281
f 297 	281 	282
f 297 	282 	293
f 291 	221 	293
f 297 	293 	301
f 299 	308 	287
f 302 	36 	90
f 305 	302 	90
f 305 	90 	92
f 307 	305 	92
f 307 	92 	93
f 7 	307 	93
f 7 	93 	99
f 225 	304 	309
f 310 	225 	309
f 311 	225 	310
f 257 	231 	311
f 225 	311 	228
f 304 	287 	309
f 308 	309 	287
f 8 	7 	99
f 8 	99 	101
f 313 	349 	239
f 9 	8 	101
f 9 	101 	106
f 16 	361 	453
f 9 	106 	47
f 25 	454 	360
f 12 	35 	24
f 46 	24 	35
f 113 	112 	13
f 113 	13 	17
f 112 	111 	14
f 112 	14 	13
f 25 	45 	454
f 111 	109 	15
f 111 	15 	14
f 16 	453 	39
f 48 	15 	109
f 22 	265 	116
f 16 	39 	44
f 16 	44 	19
f 24 	46 	45
f 24 	45 	25
f 28 	22 	116
f 28 	116 	121
f 319 	390 	318
f 32 	28 	121
f 32 	121 	126
f 264 	292 	260
f 36 	32 	126
f 36 	126 	129
f 320 	390 	319
f 36 	129 	90
f 268 	270 	289
f 267 	292 	264
f 109 	143 	48
f 13 	8 	17
f 283 	286 	270
f 143 	142 	49
f 143 	49 	48
f 142 	141 	50
f 142 	50 	49
f 323 	394 	322
f 141 	140 	51
f 141 	51 	50
f 324 	394 	323
f 296 	260 	294
f 17 	8 	296
f 294 	260 	292
f 71 	74 	283
f 98 	283 	74
f 270 	71 	283
f 286 	289 	270
f 267 	268 	289
f 289 	290 	267
f 292 	267 	290
f 140 	139 	52
f 140 	52 	51
f 305 	15 	302
f 139 	151 	68
f 139 	68 	52
f 13 	14 	307
f 48 	49 	302
f 151 	212 	68
f 7 	13 	307
f 14 	15 	307
f 327 	402 	326
f 71 	153 	156
f 71 	156 	74
f 74 	156 	159
f 74 	159 	77
f 77 	159 	162
f 77 	162 	85
f 85 	162 	165
f 85 	165 	86
f 86 	165 	167
f 86 	167 	91
f 330 	222 	20
f 330 	20 	331
f 173 	94 	120
f 332 	223 	227
f 172 	95 	94
f 172 	94 	173
f 333 	223 	332
f 171 	97 	95
f 171 	95 	172
f 128 	98 	97
f 128 	97 	171
f 98 	128 	83
f 167 	178 	104
f 167 	104 	91
f 234 	334 	332
f 104 	178 	181
f 104 	181 	107
f 234 	332 	227
f 107 	181 	184
f 107 	184 	108
f 108 	184 	187
f 108 	187 	114
f 114 	187 	190
f 114 	190 	115
f 120 	193 	173
f 115 	190 	194
f 115 	194 	122
f 11 	10 	337
f 11 	337 	233
f 2 	337 	3
f 334 	3 	337
f 133 	193 	120
f 233 	1 	4
f 233 	4 	234
f 2 	1 	233
f 2 	233 	337
f 334 	234 	4
f 334 	4 	3
f 341 	35 	12
f 35 	341 	342
f 198 	197 	131
f 198 	131 	134
f 346 	347 	345
f 344 	345 	347
f 196 	132 	131
f 196 	131 	197
f 375 	350 	343
f 351 	348 	349
f 195 	133 	132
f 195 	132 	196
f 348 	351 	352
f 374 	353 	350
f 374 	350 	375
f 354 	355 	356
f 354 	356 	357
f 133 	195 	193
f 348 	358 	26
f 194 	200 	136
f 194 	136 	122
f 353 	374 	359
f 373 	359 	374
f 360 	361 	16
f 136 	200 	209
f 136 	209 	138
f 360 	348 	361
f 358 	348 	360
f 348 	352 	361
f 362 	359 	373
f 365 	440 	364
f 371 	366 	362
f 221 	220 	144
f 221 	144 	152
f 367 	366 	371
f 218 	146 	144
f 218 	144 	220
f 216 	148 	146
f 216 	146 	218
f 215 	150 	148
f 215 	148 	216
f 369 	370 	371
f 369 	371 	372
f 369 	372 	373
f 369 	373 	374
f 369 	374 	375
f 369 	375 	376
f 369 	376 	377
f 378 	369 	377
f 215 	198 	150
f 134 	150 	198
f 225 	155 	251
f 155 	225 	228
f 155 	228 	158
f 263 	266 	414
f 416 	414 	269
f 266 	269 	414
f 419 	416 	271
f 269 	271 	416
f 271 	277 	421
f 271 	421 	419
f 277 	284 	421
f 415 	413 	431
f 423 	284 	288
f 339 	415 	431
f 388 	317 	389
f 318 	389 	317
f 390 	389 	318
f 443 	420 	417
f 430 	425 	295
f 320 	391 	390
f 422 	420 	443
f 430 	295 	382
f 300 	382 	295
f 321 	392 	391
f 321 	391 	320
f 382 	300 	381
f 303 	381 	300
f 392 	321 	393
f 322 	393 	321
f 303 	306 	383
f 303 	383 	381
f 394 	393 	322
f 384 	383 	312
f 306 	312 	383
f 324 	396 	394
f 325 	398 	396
f 325 	396 	324
f 385 	384 	314
f 312 	314 	384
f 437 	399 	397
f 398 	325 	400
f 326 	400 	325
f 315 	386 	314
f 385 	314 	386
f 401 	399 	437
f 402 	400 	326
f 315 	316 	387
f 315 	387 	386
f 404 	18 	405
f 404 	405 	406
f 434 	407 	403
f 387 	316 	388
f 317 	388 	316
f 408 	407 	434
f 263 	412 	261
f 411 	261 	412
f 263 	414 	412
f 417 	418 	440
f 423 	288 	425
f 288 	295 	425
f 369 	378 	431
f 369 	431 	432
f 369 	432 	433
f 369 	433 	434
f 369 	434 	435
f 369 	435 	436
f 369 	436 	437
f 438 	369 	437
f 439 	369 	438
f 441 	369 	439
f 369 	441 	442
f 369 	442 	443
f 369 	443 	444
f 369 	444 	440
f 410 	261 	409
f 429 	338 	428
f 363 	428 	338
f 409 	261 	411
f 428 	363 	446
f 445 	446 	363
f 364 	440 	363
f 369 	440 	365
f 445 	363 	440
f 445 	440 	427
f 428 	12 	447
f 446 	12 	428
f 448 	341 	446
f 341 	12 	446
f 19 	447 	12
f 427 	361 	352
f 445 	427 	352
f 449 	352 	448
f 449 	445 	352
f 341 	448 	352
f 344 	450 	451
f 327 	406 	405
f 357 	450 	354
f 347 	354 	450
f 347 	450 	344
f 5 	239 	349
f 452 	349 	313
f 402 	327 	405
f 351 	349 	453
f 426 	351 	453
f 454 	453 	349
f 452 	454 	349
f 440 	426 	427
f 338 	368 	335
f 338 	335 	336
f 426 	440 	418
f 446 	458 	459
f 446 	459 	448
f 447 	460 	429
f 447 	429 	428
f 455 	464 	457
f 19 	44 	460
f 19 	460 	447
f 338 	415 	339
f 338 	339 	340
f 338 	340 	343
f 338 	343 	350
f 338 	350 	353
f 338 	353 	359
f 338 	359 	362
f 338 	362 	366
f 338 	366 	367
f 368 	338 	367
f 449 	461 	462
f 449 	462 	445
f 464 	455 	463
f 456 	463 	455
f 448 	459 	461
f 448 	461 	449
f 352 	351 	342
f 352 	342 	341
f 466 	457 	464
f 347 	346 	355
f 347 	355 	354
f 344 	451 	465
f 344 	465 	345
f 397 	338 	395
f 399 	338 	397
f 401 	338 	399
f 403 	338 	401
f 407 	338 	403
f 408 	338 	407
f 413 	338 	408
f 415 	338 	413
f 424 	395 	338
f 450 	467 	465
f 450 	465 	451
f 357 	356 	467
f 357 	467 	450
f 468 	469 	246
f 468 	246 	245
f 161 	158 	228
f 161 	228 	231
f 422 	338 	420
f 424 	338 	422
f 420 	338 	417
f 163 	161 	231
f 163 	231 	235
f 463 	456 	471
f 470 	471 	456
f 166 	163 	235
f 166 	235 	237
f 458 	462 	418
f 417 	338 	418
f 458 	418 	338
f 429 	458 	338
f 426 	418 	462
f 168 	166 	237
f 168 	237 	243
f 35 	342 	458
f 35 	458 	429
f 44 	35 	460
f 429 	460 	35
f 461 	351 	462
f 426 	462 	351
f 170 	168 	243
f 170 	243 	247
f 342 	351 	461
f 342 	461 	459
f 459 	458 	342
f 345 	465 	467
f 174 	170 	247
f 174 	247 	252
f 356 	355 	467
f 355 	346 	467
f 345 	467 	346
f 469 	457 	466
f 348 	5 	349
f 313 	26 	358
f 313 	358 	452
f 182 	174 	252
f 182 	252 	256
f 272 	257 	180
f 427 	426 	453
f 427 	453 	361
f 468 	457 	469
f 360 	454 	452
f 360 	452 	358
f 445 	462 	458
f 445 	458 	446
f 410 	409 	222
f 410 	222 	330
f 185 	182 	256
f 185 	256 	259
f 335 	368 	369
f 365 	335 	369
f 248 	250 	471
f 248 	471 	470
f 335 	365 	364
f 188 	185 	259
f 188 	259 	262
f 238 	21 	472
f 363 	338 	364
f 191 	188 	262
f 191 	262 	265
f 404 	331 	20
f 404 	20 	18
f 31 	473 	474
f 31 	474 	23
f 378 	339 	431
f 22 	191 	265
f 29 	475 	476
f 29 	476 	30
f 151 	280 	212
f 339 	378 	340
f 377 	340 	378
f 473 	476 	475
f 473 	475 	474
f 280 	279 	213
f 280 	213 	212
f 475 	29 	23
f 475 	23 	474
f 376 	343 	340
f 376 	340 	377
f 279 	278 	214
f 279 	214 	213
f 473 	31 	30
f 473 	30 	476
f 343 	376 	375
f 33 	477 	478
f 33 	478 	34
f 278 	276 	206
f 278 	206 	214
f 206 	276 	275
f 206 	275 	207
f 275 	274 	208
f 275 	208 	207
f 478 	38 	34
f 274 	273 	210
f 274 	210 	208
f 43 	479 	480
f 43 	480 	40
f 372 	362 	373
f 38 	481 	482
f 38 	482 	37
f 273 	272 	211
f 273 	211 	210
f 477 	482 	478
f 481 	478 	482
f 362 	372 	371
f 180 	211 	272
f 477 	33 	37
f 477 	37 	482
f 282 	281 	219
f 282 	219 	217
f 370 	367 	371
f 481 	38 	478
f 219 	281 	285
f 219 	285 	224
f 41 	483 	484
f 41 	484 	42
f 370 	369 	367
f 368 	367 	369
f 479 	484 	483
f 479 	483 	480
f 224 	285 	287
f 224 	287 	226
f 483 	41 	40
f 483 	40 	480
f 226 	287 	251
f 479 	43 	42
f 479 	42 	484
f 209 	291 	232
f 209 	232 	138
f 395 	424 	441
f 232 	291 	293
f 232 	293 	236
f 439 	438 	395
f 397 	395 	438
f 230 	102 	60
f 105 	60 	102
f 236 	293 	282
f 236 	282 	217
f 397 	438 	437
f 301 	244 	242
f 301 	242 	297
f 401 	437 	436
f 301 	221 	244
f 152 	244 	221
f 401 	436 	403
f 435 	403 	436
f 255 	299 	249
f 298 	241 	249
f 298 	249 	299
f 488 	491 	487
f 489 	491 	488
f 490 	491 	489
f 486 	487 	491
f 491 	492 	486
f 492 	493 	486
f 485 	486 	493
f 494 	495 	493
f 485 	493 	495
f 403 	435 	434
f 297 	242 	241
f 297 	241 	298
f 433 	408 	434
f 287 	304 	251
f 433 	432 	408
f 413 	408 	432
f 497 	491 	501
f 490 	501 	491
f 251 	304 	225
f 413 	432 	431
f 257 	311 	258
f 257 	258 	180
f 310 	253 	258
f 310 	258 	311
f 496 	499 	500
f 309 	254 	253
f 309 	253 	310
f 501 	502 	498
f 498 	497 	501
f 499 	498 	502
f 502 	503 	499
f 503 	500 	499
f 444 	417 	440
f 308 	255 	254
f 308 	254 	309
f 417 	444 	443
f 255 	308 	299
f 442 	422 	443
f 27 	313 	239
f 500 	379 	496
f 60 	496 	379
f 504 	229 	379
f 380 	229 	504
f 230 	379 	229
f 442 	441 	422
f 424 	422 	441
f 26 	313 	27
f 348 	6 	5
f 439 	395 	441
f 505 	506 	507
f 505 	507 	328
f 329 	508 	328
f 505 	328 	508
f 238 	6 	27
f 245 	6 	238
f 348 	27 	6
f 6 	245 	248
f 506 	505 	510
f 513 	510 	505
f 288 	284 	456
f 284 	277 	456
f 277 	271 	456
f 271 	269 	456
f 269 	266 	456
f 266 	263 	456
f 261 	456 	263
f 513 	514 	509
f 509 	510 	513
f 315 	314 	457
f 314 	312 	457
f 312 	306 	457
f 306 	303 	457
f 300 	295 	457
f 295 	288 	457
f 456 	457 	288
f 303 	300 	457
f 325 	324 	457
f 324 	323 	457
f 323 	322 	457
f 322 	321 	457
f 321 	320 	457
f 320 	319 	457
f 319 	318 	457
f 318 	317 	457
f 317 	316 	457
f 316 	315 	457
f 515 	531 	511
f 511 	509 	515
f 514 	515 	509
f 404 	406 	238
f 238 	468 	245
f 516 	528 	530
f 326 	325 	457
f 261 	410 	456
f 470 	456 	410
f 327 	326 	457
f 457 	468 	327
f 455 	457 	456
f 406 	327 	468
f 238 	406 	468
f 6 	248 	470
f 6 	470 	410
f 6 	410 	330
f 10 	6 	330
f 530 	524 	516
f 331 	404 	472
f 238 	472 	404
f 330 	331 	333
f 472 	333 	331
f 10 	330 	333
f 10 	333 	332
f 332 	334 	337
f 10 	332 	337
f 246 	5 	250
f 240 	5 	246
f 239 	5 	240
f 522 	380 	523
f 504 	523 	380
f 523 	520 	522
f 520 	519 	522
f 519 	518 	522
f 521 	522 	518
f 416 	466 	414
f 419 	466 	416
f 421 	466 	419
f 423 	466 	421
f 425 	466 	423
f 430 	466 	425
f 531 	532 	512
f 512 	511 	531
f 382 	466 	430
f 381 	466 	382
f 383 	466 	381
f 384 	466 	383
f 385 	466 	384
f 386 	466 	385
f 387 	466 	386
f 388 	466 	387
f 526 	534 	527
f 525 	512 	532
f 389 	466 	388
f 390 	466 	389
f 391 	466 	390
f 392 	466 	391
f 393 	466 	392
f 394 	466 	393
f 396 	466 	394
f 398 	466 	396
f 400 	466 	398
f 402 	466 	400
f 21 	240 	18
f 466 	464 	463
f 246 	469 	240
f 409 	411 	463
f 471 	409 	463
f 466 	463 	411
f 411 	412 	466
f 469 	466 	402
f 412 	414 	466
f 402 	405 	469
f 240 	469 	405
f 405 	18 	240
f 5 	222 	409
f 5 	409 	471
f 250 	5 	471
f 518 	517 	521
f 524 	521 	517
f 517 	516 	524
f 529 	530 	528
f 527 	534 	528
f 526 	525 	533
f 532 	533 	525
f 534 	526 	533
f 529 	528 	534
f 67 	491 	497
f 67 	66 	492
f 67 	492 	491
f 66 	65 	493
f 66 	493 	492
f 65 	63 	494
f 65 	494 	493
f 63 	62 	495
f 63 	495 	494
f 62 	61 	485
f 62 	485 	495
f 59 	486 	485
f 59 	485 	61
f 57 	487 	486
f 57 	486 	59
f 57 	56 	488
f 57 	488 	487
f 56 	55 	489
f 56 	489 	488
f 55 	54 	490
f 55 	490 	489
f 72 	497 	498
f 72 	498 	73
f 73 	498 	499
f 73 	499 	75
f 497 	72 	67
f 75 	499 	496
f 75 	496 	70
f 89 	88 	502
f 89 	502 	501
f 88 	87 	503
f 88 	503 	502
f 84 	379 	500
f 87 	84 	500
f 87 	500 	503
f 501 	490 	89
f 54 	89 	490
f 100 	96 	504
f 100 	504 	379
f 84 	100 	379
f 110 	380 	175
f 102 	230 	229
f 102 	229 	103
f 105 	70 	60
f 103 	229 	380
f 103 	380 	110
f 496 	60 	70
f 119 	506 	510
f 119 	118 	507
f 119 	507 	506
f 118 	117 	328
f 118 	328 	507
f 329 	125 	124
f 329 	124 	508
f 124 	123 	505
f 124 	505 	508
f 127 	510 	509
f 127 	509 	130
f 510 	127 	119
f 130 	509 	511
f 130 	511 	135
f 135 	511 	512
f 135 	512 	137
f 505 	123 	513
f 149 	513 	123
f 147 	514 	149
f 513 	149 	514
f 147 	145 	515
f 147 	515 	514
f 145 	531 	515
f 157 	154 	516
f 157 	516 	517
f 160 	157 	517
f 160 	517 	518
f 164 	160 	518
f 164 	518 	519
f 523 	504 	179
f 96 	179 	504
f 169 	164 	519
f 169 	519 	520
f 179 	169 	520
f 179 	520 	523
f 176 	521 	524
f 176 	524 	177
f 175 	522 	521
f 175 	521 	176
f 380 	522 	175
f 512 	525 	183
f 512 	183 	137
f 183 	525 	526
f 183 	526 	186
f 186 	526 	527
f 186 	527 	189
f 192 	189 	527
f 192 	527 	528
f 528 	516 	192
f 154 	192 	516
f 145 	205 	531
f 205 	204 	532
f 205 	532 	531
f 204 	203 	533
f 204 	533 	532
f 203 	202 	534
f 203 	534 	533
f 201 	529 	534
f 201 	534 	202
f 199 	530 	529
f 199 	529 	201
f 199 	177 	530
f 524 	530 	177
f 125 	329 	21
f 472 	21 	329
f 472 	329 	328
f 117 	223 	328
f 472 	328 	333
f 333 	328 	223
# 1064 faces

 #end of obj_0

